<?xml version="1.0" encoding="UTF-8"?>
<svg width="329px" height="318px" viewBox="0 0 329 318" version="1.1" xmlns="http://www.w3.org/2000/svg" xmlns:xlink="http://www.w3.org/1999/xlink">
    <title>illustrationCourse2</title>
    <g id="1440px" stroke="none" stroke-width="1" fill="none" fill-rule="evenodd">
        <g id="01.01.01-DUI-Homepage" transform="translate(-847.000000, -6172.000000)">
            <g id="Course-element-1-Copy" transform="translate(165.000000, 5927.000000)">
                <g id="illustrationCourse2" transform="translate(682.000000, 248.000000)">
                    <g id="Bottom">
                        <g id="Group-13" transform="translate(5.773077, 115.157692)">
                            <path d="M130.719312,79.3684349 C143.380711,80.0586441 144.231847,65.256422 132.498667,62.8101923 C118.299513,59.9291487 115.784649,79.7540246 130.719312,79.3684349 M10.6346154,105.323866 C12.3276078,100.178152 15.9801748,95.5339538 14.3310774,90.0261918 C15.0305431,85.9865955 11.1235276,83.5917302 11.3283711,79.5610514 C11.7712471,72.8126963 10.5564608,65.6277438 13.0035201,59.2061234 C13.4221289,58.1973836 13.2940124,57.7329638 12.514251,56.9318217 C10.5246993,54.8868765 11.3565639,51.5788663 14.0637816,50.8051899 C36.4463265,47.5585317 59.1411328,45.3416583 81.7410117,44.1381618 C85.3521817,43.3345229 82.4404774,48.8280171 85.574155,48.2836971 C100.05595,47.3377361 114.585208,47.7511482 129.059508,46.8797368 C133.982176,47.8371122 157.21086,44.1549266 156.862912,48.8347944 C160.426261,61.2268132 159.964828,74.2498295 160.398069,87.0206608 C160.858431,109.634909 156.684477,122.320133 133.366218,106.329039 C128.483163,102.504175 106.439288,81.037778 101.747514,88.6903606 C98.5835029,98.8462444 90.3105369,104.072929 82.3166434,94.8494518 C78.0863035,89.5977984 73.9451812,83.0203012 67.427303,80.6875013 C51.2371706,76.6507586 36.1833131,91.2493066 29.9780533,104.892619 C26.4354023,111.356687 25.6763393,123.784375 16.1243504,123.323879 C8.09405611,124.159621 12.4714265,110.865158 10.6346154,105.323866" id="Fill-1" fill="#9DD1F1"></path>
                            <g id="Group-5" transform="translate(0.000000, 29.169231)" fill="#C72628" fill-rule="nonzero">
                                <path d="M10.5014481,76.2806072 C11.9145749,95.1919418 11.9948459,114.104347 13.80469,132.99462 C15.2053302,138.508373 13.4761139,152.761309 17.3337611,155.743983 C61.2009849,157.63426 105.399282,156.119897 149.281133,153.750179 C154.980019,153.676995 163.964309,150.426219 165.490529,158.355742 C166.327132,163.543204 158.798423,162.873486 155.724578,165.299609 C153.010703,166.705089 149.838392,166.313825 146.924019,165.850092 C122.199116,163.557484 97.2351837,165.940411 72.4243014,166.052506 C54.900958,166.101414 37.6366225,170.154353 20.1118521,167.766072 C16.5335481,167.655404 18.7340445,172.273462 13.5285577,170.024051 C9.57173121,169.493203 9.60740722,169.489276 8.99056898,165.786547 C7.01483146,156.52901 6.06870363,147.1069 5.27562589,137.692287 C3.29774781,108.116508 0.445450681,78.5278766 0.451515603,48.8417864 C0.00841953874,34.4406983 -0.495682505,20.1167207 1.01162898,5.75882876 C1.41084355,3.88997165 0.810059519,1.08150958 2.87070595,0.170464044 C13.2795391,2.26636856 7.8150444,64.2885063 10.5014481,76.2806072" id="Fill-3"></path>
                            </g>
                            <g id="Group-8" transform="translate(134.907692, 0.000000)" fill="#FDCA40">
                                <path d="M63.6760749,30.5427343 C62.6615326,39.0377745 67.9607716,56.2088435 54.7896148,56.2134842 C49.6406784,55.0968525 26.1605549,59.3513337 26.6293558,53.9248889 C21.1368707,46.2198442 32.8619021,48.6590849 28.819121,43.1426813 C22.2237013,34.1696456 28.0926586,19.4860094 18.9925541,22.3989618 C6.42797544,25.1930401 0.840298692,17.3337803 0.183619632,5.69125214 C0.54470365,-3.952191 18.066404,2.20284885 24.4199081,1.07836355 C35.6611084,0.999828072 46.5430141,3.69894977 57.4879036,5.85938947 C68.2849957,8.43214044 62.5720668,22.864463 63.6760749,30.5427343" id="Fill-6"></path>
                            </g>
                            <path d="M137.639508,132.870207 C144.074314,132.112462 153.366887,136.210465 149.090608,143.610024 C145.751062,147.436035 155.759329,151.788633 148.78051,156.285394 C142.19763,159.879536 134.174778,159.398755 126.900883,160.407899 C121.439292,159.860007 117.313949,167.710875 112.148865,164.531823 C109.444179,158.138568 112.018674,150.712023 111.821241,143.94025 C111.495405,137.936875 114.935099,134.118321 121.107376,134.527731 C126.427688,133.950012 132.411475,133.157824 137.639508,132.870207" id="Fill-9" fill="#FDCA40"></path>
                            <path d="M130.820774,79.280632 C115.73815,79.6612192 118.27961,60.0205196 132.619113,62.87616 C144.467971,65.3038607 143.605921,79.9651235 130.820774,79.280632" id="Fill-11" fill="#FDCA40"></path>
                        </g>
                        <g id="Ink" transform="translate(0.303846, 86.292308)" fill="#2C2D2C" fill-rule="nonzero">
                            <g id="Group-3" transform="translate(0.000000, 47.096154)">
                                <path d="M15.8058495,76.6626744 C16.8316312,80.8260291 14.2598629,104.868591 18.4107996,104.031707 C21.5405931,102.700333 26.9995352,103.651824 28.038875,99.6516333 C31.5707749,88.1737558 36.7913789,76.9740066 44.7357452,68.1078211 C54.326714,57.0619529 68.0572022,50.4161519 79.9277254,62.507411 C113.657922,93.5856529 91.3122957,78.1564979 117.179832,66.6718368 C125.161662,64.6413936 136.329658,79.7717125 142.565697,84.5723701 C149.454668,89.7347015 145.427181,92.9522774 139.29711,88.2780093 C136.017464,85.5342153 132.668956,82.8721818 129.406078,80.108394 C125.440674,77.8033929 120.824122,68.7976077 116.037379,73.7989175 C110.257679,78.3221609 106.339372,91.8290535 97.2425621,86.8566633 C85.7427475,79.9584404 78.5169635,65.0662622 65.1800186,61.7758516 C47.2190287,65.1219592 39.2660993,84.8933422 31.8637024,99.5698729 C31.2121973,100.915528 31.6385657,101.54926 33.1117664,101.482495 C72.1785251,98.9157895 111.216384,96.5015365 150.380904,96.1380775 C173.086892,95.944923 163.499848,93.0233269 162.401994,69.9929522 C160.741476,58.0412927 160.025392,46.008944 158.804087,34.0219383 C159.413134,29.0845373 155.647891,31.5916188 152.608723,31.5155709 C133.433564,31.9582911 114.268396,31.7233638 95.1089364,33.0076093 C69.0348167,35.3004713 42.8197636,34.8149073 16.7592021,37.2041681 C15.4098087,37.4337399 15.0176925,37.8739608 15.0540854,39.3128014 C15.414447,51.7750172 16.396343,64.1879625 15.8058495,76.6626744 M49.7187247,104.856452 C48.2822736,106.901176 45.3337313,104.921074 43.5665326,105.857927 C35.6078945,107.568113 27.1183475,107.358535 18.9463468,108.362153 C14.59846,108.96518 17.3172272,115.91196 16.318562,119.027067 C15.2546034,134.045635 16.4131123,149.103119 17.1399008,164.112761 C62.5169112,164.099908 111.928187,163.18769 158.605353,165.582664 C182.003878,166.043592 172.507102,166.257455 171.174835,137.091478 C169.627421,125.683579 168.834269,114.131796 166.971093,102.768169 C165.868957,96.9517543 166.55079,97.5408578 160.980171,97.8054188 C157.490016,97.9710818 153.999504,98.1356737 150.508279,98.2774156 C123.090118,99.1435762 95.2523674,101.762409 68.3783165,104.03492 C66.9768312,104.709354 64.9609474,104.167379 63.4331572,103.99886 C59.2636671,104.903223 53.7711864,107.291055 49.6794774,104.839671 C50.093358,105.106017 50.4993891,105.224195 50.9832012,105.08638 C50.5775269,104.919646 50.1536561,104.872875 49.7187247,104.856452 M157.49965,27.0001822 C158.720954,24.0382414 156.366473,11.2297042 155.986488,7.18095687 C145.426111,7.48015002 134.806506,8.20992424 124.244345,8.74333063 C87.3465348,10.489219 50.4765543,12.8395633 13.5384262,13.5846899 C9.34217665,12.9402464 3.22423675,14.8742909 0.144394371,11.6824213 C-0.578112674,10.1486101 1.59476036,9.86119907 2.61447648,9.58949741 C42.0733514,4.80276408 81.9932036,4.08298677 121.669723,1.78833957 C130.989528,1.32883887 140.30862,0.857913144 149.628426,0.393413997 C155.441307,0.0999333676 163.643636,-1.61560729 165.35232,5.93848413 C173.51219,57.7999388 174.198304,109.813489 179.841351,161.899517 C180.303399,165.830801 179.49098,171.653285 174.342092,171.365517 C165.963864,170.458655 157.556023,170.003082 149.119995,170.083057 C130.715511,169.696748 112.298539,170.066633 93.8872751,170.065919 C67.5227254,169.779222 40.8645346,171.427641 14.7554492,167.342476 C10.0750307,168.601015 12.4284413,158.232081 11.3341553,155.48186 C10.80396,147.466126 9.96977659,139.454319 9.86309531,131.418948 C10.3633199,105.353084 8.42164915,79.3268501 8.33030999,53.2588438 C7.48363877,42.879555 8.59683481,32.0561179 6.02185538,21.9538863 C4.81767698,15.4637514 13.2876003,17.641292 13.2376492,22.9292988 C15.2763678,43.6364637 16.0127898,30.0660194 46.0869226,30.5640796 C66.0406048,30.1574197 86.20872,27.207975 105.888028,27.9002609 C122.314805,25.763779 140.402814,27.8370661 157.49965,27.0001822" id="Fill-1"></path>
                            </g>
                            <path d="M29.5528665,0.0452172628 C35.5628248,0.577474276 43.4609448,1.15707047 49.1361762,4.60747904 C52.6784695,6.28410922 57.1158884,11.5544004 49.9493116,10.0704201 C40.9224339,7.69440506 31.6066006,7.48405446 22.471066,5.95396991 C11.8441862,1.03728177 23.8545505,-0.274219274 29.5528665,0.0452172628" id="Fill-3"></path>
                            <path d="M227.976083,178.681695 C233.820693,177.634756 254.892805,217.773561 241.354065,205.491994 C239.017892,202.240425 219.22787,179.300869 227.976083,178.681695" id="Fill-6"></path>
                            <path d="M209.35,193.372237 C203.162479,195.225835 199.134116,182.066163 195.568209,177.940592 C194.209528,174.631847 189.440772,170.524206 191.732891,166.935748 C192.808982,166.287865 194.669658,165.170207 195.627906,166.57993 C201.532062,174.707154 205.284812,184.175568 209.35,193.372237" id="Fill-10"></path>
                            <path d="M46.2886894,32.8153846 C42.2854166,31.854215 11.7744322,31.9717682 15.8741887,25.5840377 C18.7811645,22.2258422 65.0218188,32.5981757 46.2886894,32.8153846" id="Fill-20"></path>
                            <path d="M71.4211957,24.3076923 C74.9105712,24.6751186 93.7810344,26.5688387 89.2362968,32.5580473 C85.2661629,34.3318159 54.9127713,26.4305557 71.4211957,24.3076923" id="Fill-22"></path>
                            <path d="M136.348584,61.0414397 C139.048409,58.9644627 141.186427,63.0371561 143.6553,60.7593546 C144.620648,59.8701421 145.863499,59.437349 147.174383,59.5808974 C150.330744,60.8946695 143.587983,63.6807971 146.194353,65.4520625 C147.253157,66.6340995 149.811904,67.418425 149.459208,69.2935035 C147.96034,71.2007999 145.447425,67.940354 143.876585,67.2727287 C142.089114,65.714101 140.767489,68.1512019 139.226369,68.8095199 C138.222349,69.3296591 135.57301,69.5387171 136.225051,67.7212727 C138.737965,64.6784763 140.41909,63.8748201 136.348584,61.0414397" id="Fill-4"></path>
                            <path d="M33.7459401,70.2922677 C33.3246086,65.6628292 40.0230838,64.9651424 42.0565298,68.3709794 C44.9831547,73.7518292 33.6189184,76.4694817 33.7459401,70.2922677" id="Fill-6"></path>
                            <path d="M26.2894489,66.3202063 C31.221757,66.4670918 27.1790006,76.6613939 23.099558,73.0676924 C19.7818099,70.5591682 22.3422222,65.5384199 26.2894489,66.3202063" id="Fill-8"></path>
                            <path d="M53.1730769,69.1423487 C53.1019697,71.5302195 49.4737256,73.1897673 47.9232334,70.96367 C45.480346,66.220146 52.337923,63.3959671 53.1730769,69.1423487" id="Fill-10"></path>
                            <path d="M134.791745,105.651382 C145.23494,105.254561 135.707651,95.6014351 130.894741,93.9626703 C123.643732,92.90591 127.790299,106.683475 134.791745,105.651382 M135.939954,111.749919 C127.216016,112.402708 120.274623,106.039266 121.381837,97.6320164 C119.344333,83.4508373 139.03145,87.3025067 144.832905,95.0891424 C150.835377,102.575838 145.485222,112.726242 135.939954,111.749919" id="Fill-12"></path>
                            <path d="M144.331261,188.522659 C144.335897,188.589403 144.340533,188.656146 144.345169,188.723246 C151.328541,188.267107 156.140196,191.263422 152.524947,181.697699 C147.087452,154.961785 145.369335,161.295985 121.260423,163.828309 C117.765349,165.766723 119.922445,181.296524 119.261658,185.870054 C119.65214,188.763935 120.102174,191.041063 123.454606,190.530315 C130.420861,190.002436 137.371782,189.165109 144.331261,188.522659 M111.53762,170.908822 C111.321162,163.956085 112.303605,158.60412 120.173138,158.193309 C128.029476,157.795703 136.865404,155.618869 144.314858,158.757951 C145.546924,159.977535 146.913073,160.169913 148.566645,160.083182 C155.376351,158.192238 159.463387,187.157453 157.512051,191.476858 C156.919375,193.208261 154.910626,192.847061 153.4539,192.882039 C146.162422,192.590795 138.997539,193.864274 131.790219,194.613442 C110.224962,199.302613 112.206252,187.960158 111.53762,170.908822" id="Fill-14"></path>
                            <path d="M41.3230769,175.562854 C42.4286014,169.801029 45.7133329,163.633875 51.4001652,161.375611 C57.3349355,158.355657 58.8547634,172.200122 64.0628928,168.815943 C77.6533308,149.916299 74.5986486,169.006098 80.8325187,166.551961 C83.7301377,164.100683 89.3994391,156.366184 92.8176206,161.607228 C93.0455232,164.401642 95.4690905,167.949167 94.0565951,170.463353 C92.0423224,170.978057 90.6312581,168.750533 89.8090913,167.224293 C86.4832157,165.294868 81.6611254,177.32786 76.3055927,171.637522 C74.7320986,170.702834 73.5643213,166.143772 71.4080118,167.973115 C59.3570793,186.90743 55.5020546,163.089147 50.8423941,168.789136 C48.3411897,170.939812 44.533749,181.736085 41.3230769,175.562854" id="Fill-16"></path>
                            <path d="M80.1900263,184.037634 C83.2315512,184.581317 90.2627572,182.431516 90.85,186.36502 C90.7507578,187.154931 90.1842202,187.590696 88.8223167,187.654559 C75.3839171,187.620066 61.9876419,189.306097 48.5499562,188.940341 C43.3718671,184.410221 76.9007527,184.455642 80.1878844,183.826923 L80.1900263,184.037634 Z" id="Fill-18"></path>
                            <path d="M70.4462502,195.069231 C94.5616876,195.566431 58.6936706,200.701513 53.022828,198.452193 C51.0896267,195.341499 67.9980042,195.163903 70.4462502,195.09238 C70.4462502,195.084434 70.4462502,195.076832 70.4462502,195.069231" id="Fill-20"></path>
                            <path d="M143.712613,180.077487 C144.125379,187.967346 125.070598,181.464443 131.297826,178.162797 C135.159958,180.246194 138.776932,180.548752 142.258461,177.506093 C143.85306,177.08293 143.523205,179.001803 143.712613,180.077487" id="Fill-22"></path>
                            <path d="M137.036396,169.672599 C137.351677,162.584323 147.345168,170.638619 143.410971,172.751616 C140.348647,174.140442 136.945546,173.837013 137.036396,169.672599" id="Fill-24"></path>
                            <path d="M125.820808,170.581504 C125.370747,167.331438 130.392054,167.924841 130.926591,170.309513 C131.439831,173.857144 125.425407,174.339263 125.820808,170.581504" id="Fill-26"></path>
                        </g>
                    </g>
                    <g id="Top">
                        <g id="Color" transform="translate(75.961538, 2.126923)">
                            <g id="Group-3" transform="translate(185.042308, 155.195500)" fill="#C72628" fill-rule="nonzero">
                                <path d="M45.6609669,19.3213946 C40.3868054,18.8616754 30.7776708,19.8263869 41.2260285,23.7554215 C53.7845977,25.8647215 57.2523938,44.4935292 43.8154054,46.5924985 C40.0109477,47.2931677 36.9433169,43.8958638 33.8152208,42.2587408 C24.85814,39.5411408 15.2511323,43.7281408 6.91572077,47.0497869 C-8.02561,53.2923062 5.70246308,34.5984754 8.70659,29.6545946 C11.8735785,24.9534869 13.8880785,19.2818946 17.8970246,15.20276 C23.3067015,10.4126254 28.4903169,4.44174462 35.5878592,2.24432923 C42.3608938,1.16901769 49.8078592,-1.53582077 56.2791746,1.99608692 C59.4294515,4.94856 65.3195092,1.91435231 66.5090669,6.82329077 C69.4697438,15.6026215 51.7676669,21.2496023 45.6609669,19.3213946" id="Fill-1"></path>
                            </g>
                            <path d="M186.871006,34.077045 C184.408029,34.3043219 177.170717,30.9310219 176.627137,34.0457488 C176.368867,34.8974296 175.974171,35.3209912 175.155306,35.5895912 C170.124829,37.7004104 165.279394,31.9185219 160.526937,33.7124296 C159.350748,34.4428758 158.103763,33.697845 157.008702,34.0211373 C151.87826,38.7769373 148.288925,33.4559835 147.36341,28.2869527 C147.263748,24.3800988 141.111471,23.3354758 141.797252,19.3174142 C141.855287,18.9345681 141.946137,18.2727912 142.125406,18.2354181 C144.204017,17.8021335 145.084867,15.776695 146.803117,14.7907142 C154.904263,9.98447577 157.438644,17.7371104 165.336517,19.0834527 C172.221671,22.5348412 189.801298,20.7801296 192.524975,28.1508296 C194.425837,33.618845 190.889371,33.8318412 186.871006,34.077045" id="Fill-4" fill="#FDCA40"></path>
                            <g id="Group-8" transform="translate(37.373077, 0.233962)" fill="#FDCA40">
                                <path d="M12.7895531,23.0847419 C9.22969154,23.4056035 1.81766846,22.1923458 2.75199538,17.4909342 C3.25789923,16.3870612 2.89571462,15.7429073 1.74991077,15.1695496 C-0.230862308,14.1784035 -0.378531538,13.6241881 0.716226154,11.8861881 C7.95353769,5.10829192 19.5744377,3.91356885 28.79708,0.546041923 C31.0741031,-0.178023462 34.6120877,-0.393754231 35.76093,2.24818808 C36.3051185,5.560415 42.7302492,4.67136115 40.5355685,9.46666115 C39.8798685,11.3252881 42.1021992,11.6166765 43.1647492,12.638815 C44.6496454,14.0659804 43.0614415,17.8209112 40.8673685,17.837015 C31.2928723,18.3003804 22.2932531,23.6125227 12.7895531,23.0847419" id="Fill-6"></path>
                            </g>
                            <path d="M152.356422,49.9010792 C153.305942,66.5937792 122.888815,76.1801254 118.599258,57.2404831 C118.514038,45.0887638 152.622592,32.3083869 152.356422,49.9010792" id="Fill-9" fill="#865190"></path>
                            <path d="M30.1038312,103.269712 C30.0178427,112.636073 15.4775888,104.889212 18.3917773,116.209912 C18.7132465,117.950646 17.4866196,118.935108 16.3040504,120.02075 C11.878835,124.551704 11.0742504,115.854715 11.116485,112.839346 C11.1641888,108.813992 5.09212731,110.522823 2.39549269,109.097785 C0.819746538,108.704 -0.422984231,106.48015 0.136396538,105.011054 C2.10076192,101.813985 7.35395808,103.667142 10.1195658,102.128465 C11.9353504,100.164708 9.03756962,93.8219192 13.3066081,93.5174654 C16.4921312,93.7778615 16.0919658,97.9220192 16.9849696,100.206335 C17.2496196,102.680858 19.7718465,101.122127 21.3120427,100.982662 C23.7835273,100.584015 29.9832042,100.08905 30.1038312,103.269712" id="Fill-11" fill="#865190"></path>
                            <path d="M171.507177,166.942982 C169.676808,172.508836 167.897788,180.957278 161.0573,181.970909 C159.246377,182.131948 157.598619,184.659036 155.672538,183.168975 C147.792288,178.716717 169.326473,152.211609 171.507177,166.942982" id="Fill-13" fill="#865190"></path>
                        </g>
                        <g id="Ink" transform="translate(64.111538, -2.430769)" fill="#2C2D2C" fill-rule="nonzero">
                            <path d="M92.2721215,20.9809415 C91.4933638,21.1675031 91.7914369,21.69893 92.0029138,22.2182031 C92.8260331,22.8723838 93.0350792,21.2182454 92.2721215,20.9809415 M206.452948,36.4919838 C204.319645,37.0389069 197.396206,39.4793992 203.734437,41.0360031 C207.711783,42.6205608 206.880156,42.5725531 210.891533,40.1767262 C212.620418,38.4256608 207.66651,37.1488992 206.452948,36.4919838 M225.176252,50.6946646 C230.088229,47.6598492 220.854345,45.6052415 218.898487,43.7198762 C217.601672,42.49568 214.900783,42.2216108 214.075537,44.0033646 C216.726595,47.0229877 221.603325,48.6127108 225.176252,50.6946646 M209.839922,34.6403454 C213.060387,36.8341146 215.736056,38.8707954 219.407733,36.8641954 C224.385341,35.2811569 229.432225,35.7770338 234.469083,36.4272646 C238.541837,36.9650723 237.144752,31.0950685 233.265245,30.7356185 C225.026456,28.1441146 217.180237,29.8553762 209.839922,34.6403454 M177.943368,71.0505338 C179.619687,79.0754146 183.427791,66.0841685 184.78811,63.9697031 C189.01461,56.7329992 194.851798,50.9799762 201.67831,46.14548 C203.061418,44.5882685 194.284214,42.3638108 193.828141,44.3132877 C187.338595,52.4788492 179.133837,60.0570762 177.943368,71.0505338 M191.831264,37.80703 C193.090706,37.3928877 198.112068,34.6625262 196.338214,33.3717877 C192.418295,31.6319646 188.522683,29.8331954 184.557491,28.2042762 C176.10601,25.1606492 167.648452,20.8566685 159.100348,18.52708 C158.014098,19.0545569 159.202745,20.5567723 158.776448,21.5217877 C159.090929,23.8389185 155.880795,31.5642069 158.984887,31.7215992 C170.312879,32.2654838 180.768529,35.6667377 191.831264,37.80703 M125.499522,21.9805954 C125.505598,21.9808992 125.511675,21.9812031 125.517752,21.9812031 C127.201972,11.4353108 122.684691,15.5326762 115.164498,15.5913185 C110.410825,16.6256108 98.3663638,16.5241262 95.9787408,20.4926608 C97.0813985,23.3494223 97.4794369,32.6376954 101.512083,31.9759185 C108.847537,30.2716454 116.330052,29.8684415 123.816518,29.4114569 C126.584556,28.7284108 124.874206,24.1707185 125.499522,21.9805954 M48.6188485,15.0434838 C70.8874292,29.1744569 57.2483831,31.0950685 80.8854869,21.5184454 C92.3657062,16.69823 93.0724523,21.1027838 89.7070523,7.40084154 C88.4275562,5.06791077 84.5583792,7.21549538 82.3418215,6.95996077 C70.7245677,8.59981846 59.6235485,10.5274185 48.6188485,15.0434838 M77.4331869,43.3242685 C75.2378985,38.8635031 68.8948062,39.7799031 67.2950562,34.69048 C65.0633062,27.2286262 52.6454177,40.95123 48.4869792,42.5449031 C47.3840177,43.2756531 47.1524869,44.0538031 47.31626,45.3013954 C48.3891408,54.8871338 44.6162831,64.2431646 45.1504446,73.9094223 C44.8788062,79.5323992 49.8081023,94.92008 57.1684715,89.3101685 C62.3785215,83.7342877 62.8327715,75.8148415 64.7646254,68.7817146 C67.2187908,59.53993 71.1013369,50.5600608 77.4331869,43.3242685 M182.98296,77.85608 C198.393429,96.8905223 241.923037,108.325165 247.874168,75.1260223 C250.809625,63.6412454 253.190564,50.3458492 245.53911,40.2037685 C244.560725,39.1339262 242.375768,34.2614492 241.036718,36.8286454 C239.613806,40.9645992 236.979156,44.3974531 234.226006,47.7069454 C232.380141,50.7806531 233.847718,50.5020262 230.180295,52.2108569 C218.398052,66.3558069 202.027733,77.86398 182.98296,77.85608 M101.523325,6.07692309e-05 C136.046629,0.596814615 169.983814,12.5091031 200.021437,29.3054146 C205.820645,32.6109569 210.681879,24.4426608 216.801948,25.9603723 C227.992298,22.7001031 242.265775,24.3208185 248.939148,35.0766685 C257.133575,45.9643877 257.316795,59.5125838 254.160745,72.2601454 C253.164433,76.5291838 252.714437,82.3493569 249.052483,85.0991646 C247.697633,93.3376492 239.444868,99.1313877 231.289941,100.786742 C209.812879,104.829718 185.857041,93.6998338 173.695295,75.8622415 C170.418618,63.7093069 180.297568,52.1926262 187.473198,43.1577608 C188.036529,42.4871723 187.849664,41.8639838 187.039306,41.6643569 C178.683841,39.6070146 170.345998,37.5001454 161.71616,36.8204415 C151.149606,36.0498877 140.617387,34.79713 130.04506,34.1268454 C128.198587,33.3997415 126.932156,36.4217954 126.083818,35.1687338 C119.642279,32.0102531 105.082579,36.3090685 97.8252138,38.0324838 C78.3857446,42.3103338 70.5413485,61.8853185 67.2108908,79.5804069 C61.3721831,102.847426 41.2563523,94.8903031 40.3554485,74.4341646 C40.1299946,66.1224531 41.6398062,57.9499031 42.3091792,49.6956185 C42.3805831,48.7977531 42.82906,47.5048877 41.6571254,47.0740338 C27.3979292,55.8257146 32.1169638,80.3081185 18.2974331,90.1205262 C-6.63466308,102.206007 -0.841228462,62.7518877 5.39582154,50.1729608 C20.1469446,12.0979992 64.2177023,0.667610769 101.523325,6.07692309e-05" id="Fill-1"></path>
                            <g id="Group-5" transform="translate(156.784615, 90.278465)">
                                <path d="M6.01417885,85.7843377 C6.19192885,87.0495531 6.77136346,90.8087377 8.45588654,88.34728 C10.8392558,84.5200338 13.5568558,80.8668915 15.7326981,76.9244877 C15.6521788,74.6942569 11.4958673,75.6708185 10.1872019,76.6753338 C6.98253654,78.7314608 6.50580192,82.2551646 6.01417885,85.7843377 M24.570975,85.3577377 C24.5497058,83.4823992 23.4142327,77.3711415 21.0445365,79.5390838 C19.6447173,81.8325146 9.54274423,92.8782338 14.0187019,94.1218762 C18.5542135,94.0878454 24.7183404,90.2654608 24.570975,85.3577377 M66.7004596,40.2943146 C61.5554327,42.7402762 57.0184019,46.1029415 52.1258712,48.9922146 C49.0035481,50.8991531 54.6651135,53.3627377 56.5447058,53.3323531 C63.6948135,53.71368 69.4940212,47.2417569 66.7004596,40.2943146 M0.226821154,117.594295 C0.336813462,109.980518 2.10884423,102.914272 5.04126346,96.0883685 C7.41885962,91.7682838 -2.50931346,88.1959646 5.89051346,76.2739531 C9.83048654,70.4534762 17.682175,75.5116031 21.3799827,70.1681646 C23.6068712,67.2864877 25.874475,64.4263838 28.2870135,61.70058 C32.1030173,57.3899146 36.4243173,53.6143223 41.1014212,50.2528723 C43.5950865,48.7369838 45.7405442,47.2928031 44.7919365,43.8796992 C41.8971942,30.86688 54.650225,22.5135415 64.9503058,31.48308 C67.0009635,33.9585146 68.4971019,34.6877454 71.2572404,32.6304031 C78.4280096,28.8475185 85.8461096,24.6951569 90.2011365,17.6413685 C93.0688365,12.7014377 94.008025,7.10398385 95.4698288,1.66513769 C95.674925,0.978141538 95.7967673,-0.138189231 96.7438558,0.0748069231 C98.1570442,1.02675692 97.1251827,3.84857615 97.3278481,5.40578769 C97.1750135,21.1052146 84.6744788,31.1351762 71.6188173,37.3555146 C68.8972673,39.4411146 71.4908981,44.7183146 69.6377404,47.8628185 C66.8007288,55.2338223 56.0002135,60.0163608 49.2760981,53.23573 C48.7246173,52.5940069 47.9507212,51.6979646 47.1066365,52.4050146 C42.5258519,56.0153146 22.7968173,71.51238 25.8623212,77.0663838 C31.4418481,84.8138531 26.4028635,94.4512454 17.603175,96.5216531 C14.9360135,97.8163415 10.7152865,94.6405415 9.70256731,98.3942569 C7.54981731,103.701842 5.63680192,109.078095 4.79210962,114.788276 C2.85539423,127.879184 11.121225,143.344042 24.1121673,146.984726 C25.6812288,147.16278 25.8571558,147.524357 25.7213365,149.214957 C25.0000058,152.776034 18.5207904,149.011988 16.7156404,147.748595 C7.45380192,140.709088 0.293667308,129.358915 0.226821154,117.594295" id="Fill-3"></path>
                            </g>
                            <g id="Group-8" transform="translate(188.384615, 158.036158)">
                                <path d="M53.65443,46.3448638 C62.8272415,46.9200446 64.0404992,33.8501023 56.5467415,30.7624177 C53.0011608,28.5479869 44.6216915,28.3678062 46.0409569,22.4616446 C50.3425069,16.0349946 64.7238492,23.3169715 70.5473646,16.3312446 C75.0500608,10.4029023 62.8545877,5.41587538 58.1501377,5.27580231 C36.5642992,2.34854846 16.1777415,29.7691446 10.5413954,48.26821 C28.9733108,35.0569792 34.3684031,38.3989831 53.65443,46.3448638 L53.65443,46.3448638 Z M58.8839262,24.4661177 C57.2161146,24.7438331 55.2064762,23.7839831 53.8419031,24.9091254 C73.0024415,30.9252792 64.4862415,55.6699023 48.1219992,49.3581062 C42.5564492,47.0540408 37.0544031,44.1899869 30.9003031,44.3838408 C29.2370492,44.1219254 27.69108,43.9672677 26.3088838,45.3622254 C19.3681262,47.8528523 13.3276646,51.9644985 8.75721077,57.8266023 C7.71380308,58.9994485 7.18875692,60.4594292 6.56222615,61.8495254 C5.46898769,63.6419138 3.27582615,64.9065215 3.09291077,67.24006 C1.80186846,71.0226408 -0.696658462,64.9894715 0.653937692,63.1600138 C6.58835692,51.2048831 8.29202231,37.5552023 16.7362108,26.7358485 C26.4425762,12.5717562 41.3948454,-2.68071308 60.1208838,0.470475385 C66.7544531,1.98059077 75.6674762,5.61793308 76.4328646,13.3435254 C76.8278646,16.7532869 73.3117569,21.20676 69.9621569,21.7986523 C69.2247223,21.7378831 68.4064646,21.9903792 67.9464415,22.71961 C65.7891338,25.4435908 61.8844069,24.1877946 58.8839262,24.4421138 L58.8839262,24.4661177 Z" id="Fill-6"></path>
                            </g>
                        </g>
                    </g>
                </g>
            </g>
        </g>
    </g>
</svg>