<svg height="319" viewBox="0 0 342 319" width="342" xmlns="http://www.w3.org/2000/svg"><g fill="none" fill-rule="evenodd"><g transform="translate(.265385 137.338462)"><path d="m17.7437646 51.6842915c33.4668308-17.8141961 70.0055462-29.8729384 106.0839344-41.3726038 2.203189-1.04492693-1.439927-3.25844616-2.831846-2.3232077-27.5229922 7.3473038-53.9369461 18.1222962-81.4134499 25.5410038-9.6504577 2.7145616-19.1155693 6.2008924-28.5779462 9.4441462-1.66568459 1.1208885 5.4355039 8.0725846 6.7393077 8.7106615m91.9022194-21.9966384c-4.605092-4.5576923 17.7276-10.7406577 21.11275-12.4017846 3.47995-.5293-4.42795-6.8088885-5.187566-3.8880154-7.173503 5.4051192-17.25998 6.6268846-25.532192 10.2955231-21.3558268 7.0048692-41.9897152 16.058573-63.2838614 23.2424076-4.3091461 1.3937424-8.5219731 2.9910616-12.6479 4.809277-5.3489077 2.3572384-4.6157269 1.6836115-.9006 5.4045115.9337192.9346308 1.7531923 1.0312539 2.9290769.47795 4.1505385-1.0832115 32.8533654-17.0032308 32.7521847-10.4963654-6.1161193 6.66365-20.47285 8.7073193-28.9705154 13.1556269-4.4996577 1.2245-1.6410731 4.0204924.7146461 5.9441424 3.3499039 2.166423 5.7533269 6.1003192 9.7091 2.7519346 10.7540269-4.9028616 22.3405923-7.3682693 33.2580885-11.8478731 22.4022731-7.9644154 45.0582576-15.2871077 66.8248846-24.9384769 11.531265-4.0062116-.473696-5.085777-5.66825-12.6427346-7.337277 3.5009153-16.624031 7.4162769-25.109846 10.1338769m-72.0410117 48.6512384c-3.6318731.5566462-13.3230461-5.6363461-15.4119885-8.597023-1.5110269-2.1530539-2.8421769-4.4856808-5.4637615-5.5816539-4.3875385-5.1997192-9.15032692-9.9901577-12.84752692-15.8370692-1.11815384-2.1968077-4.17211153-4.0274808-3.65921923-6.6785385.59493077-1.8340154.51228462-4.2401731 2.81999616-4.8202154 38.33778849-12.195473 76.83114619-23.6772115 115.05468869-36.32693458 11.929304-3.02205384 19.486869 14.56334618 28.694319 20.05536538 9.796912 7.4946692 15.453312 11.9365962-.155873 16.7771692-35.229442 16.145777-72.3719001 29.1446193-109.0306347 41.0089" fill="#9dd1f1" transform="translate(69.884615 86.458208)"/><g fill="#fdca40"><path d="m155.130507 68.5507612c-2.271554-4.4477-11.077927-42.2343116-15.708846-38.8336654-28.030719 6.7329269-55.5315306 14.7888-82.3386614 25.372673-7.6575308.6110347 4.5115077 10.9387654 6.2729039 13.4224039 3.23505 3.1967654 4.3644461 7.5675923 6.03165 11.6297115 1.8002884 4.9113693 5.2437769 8.8902346 7.0626 13.77365.5821692 1.68665 1.1455 1.8476885 2.762873 1.1655539 11.109527-4.9918885 23.2369385-6.6916039 34.7998035-10.1903923 13.633577-5.3419193 27.981497-10.580227 41.117677-16.3399346m-110.0466958-16.84675c-.4743039-4.7892231 1.4268615-2.55565 4.3237307-3.7281924 12.6946923-1.8805038 24.0643116-8.2655269 36.2527962-12.100673 16.8710579-5.9672346 34.4780309-9.1867885 51.7686999-13.6117 13.822873-3.8041539 13.791577 10.0773615 18.419458 18.9566577 3.424954 7.5435884 5.262919 15.6413923 7.939804 23.4566192 1.106911 3.0949769 1.705184 6.7627038-1.954643 8.2940885-20.893069 7.9507423-40.843911 18.6212115-62.8487535 23.3557423-7.5934193.5183615-20.1729539 10.1600075-26.2246577 5.9486995-5.1097808-6.3041995-9.6304039-13.5649072-12.4987116-21.2002572-1.2922577-3.9752193-3.77225-7.22455-6.3090615-10.4152385-3.9238692-5.3452615-8.6195077-12.5099538-8.8686615-18.9557461"/><path d="m12.6656142 78.4336308c-4.5795692.7292307-14.37708843-3.5303885-7.75263458-8.0133346 6.12553848-.68335 12.50691538-2.2831 18.61209618-.6462808 1.5022154.4317654 1.3253769 2.0907654.6918577 3.2207692-.3090116 5.7973846-7.5481462 4.4188346-11.5513193 5.4388462"/><path d="m30.4644054 103.659972c3.53525-.642939 8.78875 2.897173 6.0532231 5.5142-5.2802385 1.442661-18.0688193 16.031226-18.5416039 3.291261 2.9202654-4.086731 7.2947385-8.336019 12.4883808-8.805461"/><path d="m37.8264458 149.117605c1.05465-4.693512 4.1535769-9.030004 7.505-12.456173 3.5862961-4.261443 9.2545461-1.231489 5.693773 3.770426-3.1724576 3.587512-9.6680807 20.463431-13.198773 8.685747"/><path d="m9.843005 32.8460123c-3.39760769.8258539-12.18878846-2.3490346-9.25211538-6.4713154 7.38285384-5.6014038 29.80366158 6.4622 9.25211538 6.4713154"/><path d="m27.6569581 4.03404385c2.6206731-10.12962308 9.7182154 2.79143461 12.3820346 6.50990385 2.3769885 2.2815808.0221808 4.1383846-2.4283385 4.0949346-4.7050577-1.5219654-9.8282077-5.23921922-9.9536961-10.60483845"/><path d="m79.0036765 173.626352c-.1011807-2.499135.2640423-8.064077 3.7777193-7.395312 1.2946884.287439 2.7027115.469139 2.782623 2.2357-.1734961 3.585993-.7951653 7.157704-1.1284846 10.736404-3.0351192 6.536035-6.0696307-2.231446-5.4318577-5.576792"/></g></g><g fill="#2c2d2c" fill-rule="nonzero" transform="translate(3 132.173077)"><path d="m211.751266 124.153088c-14.261323-9.356335-28.200569-21.156808-42.378031-29.8468076-35.354627 11.6813656-70.5099308 24.1907116-106.70135 33.1529576-3.2335308 1.293777-13.3516077 1.995054-13.7940077 5.199719 11.8791692 11.354123 23.2129346 23.26702 34.7882577 34.93775 1.5617692 1.909673 3.2134769 3.076443 5.5810462 1.626185 12.8080268-4.770992 25.6646688-9.4089 38.5279958-14.029185 27.693146-10.829077 57.078716-19.05875 83.976089-31.040619m-44.19655-34.911923c-1.171023-8.2406115-6.249204-15.63015-9.826385-23.0464269-8.375519-16.4310885-13.9356-34.0842462-21.957442-50.6733346-5.017716-14.92461927-3.348081-9.51494235-17.715142-7.32360388-18.4343466 4.93263848-36.7009697 10.53890388-54.7099312 16.85738458-10.8840731 3.9685346-21.9829654 7.3299846-32.9916154 10.9339039-2.7944731 1.1904692-6.4910654 1.5936731-8.7437808 3.5814346-.3913538 1.0810846-1.2764577 1.5067731-2.0825615 2.0260461-3.9888923 2.5708424-8.0403769 5.046277-12.06390772 7.5618193-1.46909615 1.1798346.77389616 3.0539577 1.08473077 4.3975654 10.96945385 24.1050269 18.38481925 49.7344495 32.77315005 72.2199765.7620461 1.078958 1.7531923 3.283058 3.3675269 2.382154 2.9886307-1.662646 6.0638577-3.220769 9.3967461-4.070323 19.7974-4.488719 39.1177616-10.697208 58.5113498-16.568427 15.511346-4.334669 30.964658-8.8789921 46.094373-14.4102075 2.497008-1.4776038 7.993281-.9513423 8.862889-3.8679615m-159.34603869-44.6365192c-9.9461-.9644077 13.87999619-9.7370539 15.65931919-11.2708693 27.533627-10.5212807 55.5306193-21.3330384 84.3780765-28.20299996 30.351497-6.23370769 25.16697-10.8625 35.667893 15.10388846 6.520234 13.7660538 10.398527 28.6305115 17.496677 42.1711115 3.812357 8.158877 8.894184 15.900877 10.9968 24.733077.302327 1.5784807 2.221723.8617077 3.070061 2.0312115 5.5063 4.4215692 11.727854 7.6122577 17.31285 11.916238 3.947266 4.1712 41.416966 23.838554 24.259989 26.095524-44.609173 14.866584-88.25242 34.618407-133.3207042 47.160265-8.9005653-2.080435-12.3641076-12.602931-19.384473-17.719092-7.4363308-6.733231-13.3276039-15.180154-21.6089308-20.921023-12.0681615-12.622377-18.3583846-31.495174-26.9967308-46.682012-5.0450615-4.5160654-5.92803843-11.0922077-8.73588074-16.8191-5.27902308-7.7912231-8.40651154-16.8227462-6.00430384-26.1933615.20327307-.9115385 1.96831538-.8538077 2.51584615-.55695 1.95859231 1.3077538 2.77350769-.1519231 4.69351154-.8459077" transform="translate(20.053846 .033119)"/><path d="m44.7240269 178.817989c.3713-4.138689 6.8605423-21.682766 12.1893962-17.970677 2.4623692 4.172719-5.1614346 14.787888-6.50565 19.700169-2.3329308 5.749073-4.7658269 2.174627-5.6837462-1.729492"/><path d="m218.128997 69.5062054c-3.280931-.0416269-23.604593-2.5902885-15.655674-7.7963885 7.27742-.6402038 15.157974.6007039 22.090527 2.8312385 4.141727 3.5246154-3.714823 5.2823654-6.434853 4.96515"/><path d="m199.427478 45.9984792c-14.021588-.4278154 21.668181-13.8198346 22.479147-10.421923 5.79465 6.570673-18.597208 8.8422269-22.479147 10.421923"/><path d="m2.46641038 108.417352c-10.61911923-1.505862 16.34874612-15.875962 18.65736922-11.7621889 1.0187962 4.2760269-14.83954229 10.5218889-18.65736922 11.7621889"/><path d="m17.1648769 148.044359c-.7511077-3.640684 14.7714808-20.459481 16.2648846-12.401481-1.7939077 2.258489-14.8392384 19.49082-16.2648846 12.401481"/><path d="m233.044592 93.4493735c-3.146327-1.3439116-12.077581-.9753462-13.261062-4.4051616.815523-5.13105 19.377788 1.5462731 13.261062 4.4051616"/><path d="m157.836956 77.8499423c-.206919-3.4024692 2.789916.5757885 4.161477-.7571846-2.517669-10.3605462-9.543504-20.5728154-14.075065-30.6343769-2.699977-5.5561308-5.470143-11.0873462-7.196293-17.0615693-.36188-2.6492346-2.836707-1.4502577-4.640338-1.3056269-24.082542 5.8314154-47.3677924 14.5609154-71.4940885 20.2899346-6.3704385 1.874427-12.6056654 4.2322731-18.938427 6.2406962-2.5620307 1.4706154 2.1299616 3.9703577 2.4784731 5.7627461 5.8332385 12.2614077 11.0183731 24.6829423 18.9682039 35.6925039 2.8136153 2.87955 6.8878884 14.7380576 11.4543923 11.6126966 25.9587922-10.5465005 54.6637462-17.2569428 79.2816652-29.8398197m-82.309796 35.2838307c-7.9659346-.573054-11.2991269-11.034477-15.3876808-16.7960076-9.3314192-11.3705308-12.3255192-26.1016-19.2744807-38.8096616-4.5054308-5.7120038 26.2532192-13.7654461 30.6246538-15.9054346 23.11935-5.9562961 45.2815847-15.4651615 68.7904657-19.7949692 7.741088-1.3739923 7.292611 12.6156923 11.314927 17.3748346 5.716561 11.1857923 11.228634 22.5171269 15.29683 34.4364039.456681 1.7966423 2.418616 3.7351807.952862 5.5163269-3.376946 4.9320308-10.012642 2.9649308-14.615 5.9259115-25.342896 10.6176-51.747431 19.7545581-77.702577 28.0525961"/><path d="m178.850288 123.802997c-12.29787-6.149239-14.898489-6.141643-27.118573-.412927-5.030781 2.2436-10.103797 4.444357-14.718308 7.499227-3.669246 2.428946-3.63005 1.672673-1.361535 5.390534 1.329327 1.361535 1.9039 5.523923 4.307627 4.552831 5.262008-2.268819 10.557135-4.468058 15.748043-6.890319 7.309626-4.108912 16.242703-5.854812 23.142746-10.139346m-52.736754 8.885676c4.424911-7.788488 16.442027-10.752507 24.498508-14.261019 3.53525-2.027565 11.430084-1.021227 13.367407-3.611211.265562-.673627 1.229362-.794558 2.054304-.76782 3.737004.171674 25.643704 6.513854 19.05085 11.792877-13.583442 7.330289-28.479196 12.295439-42.261354 19.43005-5.413627 3.919312-7.904557 2.302243-11.059088-3.078569-1.932158-3.105915-5.23375-5.695292-5.650627-9.504308"/><path d="m119.961925 52.9618735c-1.973784.2707269-1.08868 1.7118692-.175015 2.844 4.413062 4.1438538-.243077 13.2847615 2.334754 12.8280807 5.277504-1.4031615 8.198681-6.1136884 11.048454-10.3675346 2.229623-2.9564231-11.06547-4.7606615-13.208193-5.3045461m-31.3414265 23.3417653c.0003038.0395.0003038.079.0006077.1181962 22.0479888-1.0342923 10.2332346.9215654 8.5389884-11.1696885-.4521231-1.7118692 1.5891154-8.6757192-.7808846-8.2855807-7.3369731 3.3802884-10.6419077 11.3453115-14.4536577 17.9563961-.6146808 2.7011923 5.0198423.8781154 6.6949462 1.3806769m1.5222692 5.4555577c-21.3078192.16195-13.4828692-4.0928077-6.9146269-19.4139461 6.3485615-11.2468654 19.8964542-15.5435539 32.1520882-14.9413308 7.434508-.5754846 14.258893 1.5930654 21.218185 3.8898385 6.9678 2.7501115.834361 10.2089269-1.420481 14.4105115-4.556477 7.9443616-13.899746 9.5003577-21.688538 12.8195731-7.413239 3.15605-15.391935 3.8242077-23.3469312 3.4450077.0003039-.0698846.0003039-.1397692.0003039-.2096539"/></g><g transform="translate(54.957692 3.646154)"><path d="m68.9536915 227.409066c34.9031115.668157 70.1216155 7.547538 104.8557885 2.262742 10.961858 2.151839 26.240458 31.157904 35.8265 39.802023 3.116854 3.640685 14.160142 13.550323 4.753977 15.604627-2.826377-.787873-5.649715-.412623-8.517112-.130654-11.570765.500131-23.135757 1.126054-34.717157.834362-30.566012.275284-61.067608-.812789-90.984908-8.1212-12.8286885-.638077-33.6622038-4.241693-11.8026-15.936123 1.9613269-.75992 1.7850962-2.000523-.1157654-1.586989-9.8540346-.3476-17.4033961-7.590988-5.9140615-13.959907 21.2877654-6.495016 6.3914038-.841654-5.1587-10.704804-5.4260846-5.045062 8.8367577-8.86775 11.7740384-8.064077" fill="#fdca40"/><path d="m22.1150169 60.2479523c-3.82755 10.0694615 2.3630116 25.08645-7.9546923 32.4228154-17.71605383-.9847654-13.16929998-25.3921192-13.52297691-37.7966385-3.20284231-19.4677269 5.90251539-39.7415577 21.93860381-51.01850382 10.4836039-9.36423461 16.19105.33939616 23.5650923 7.97656922 8.2716039 8.4189692 16.7322 16.6547192 25.0199077 25.0591039 3.8123577 2.8780307-.6076923 5.3799-.43845 8.9187961.1993231 6.1774962.0823423 12.3355462-.4910153 18.4863039-1.2296654 7.6271461 2.1846538 15.1576692.3670461 22.64535-1.3904 15.0759345-12.1459461 14.0972465-20.3312577 4.022923-4.6643423-6.3932269-3.6905154-14.6165192-3.87495-22.0589269.7404731-3.7099615-2.0719269-4.0235308-1.2725077-.0352461-.3181269 10.4091615 2.4666231 24.2384153-7.6468961 30.9260692-10.1767193 2.2849233-15.3904154-14.4807-15.2755616-22.6022039-.0601615-5.7186884.9331116-11.2468653-.0823423-16.9464115" fill="#fdca40" transform="translate(0 34.575869)"/><path d="m140.93995 45.1679765c-7.555438 3.7528039-15.140958 5.0730154-21.913992-.6532692-1.665685-1.19685-1.887189-2.4869808-.836185-4.3480385 4.140208-5.9022115 10.788969-9.7923538 16.738581-13.7244269 1.720984-1.5350307 15.691527-6.5740154 7.455777-6.1139923-28.826493-4.1499308-9.338104-18.09403845 7.606181-19.61174998 20.72018-2.13512693 42.106696.71221538 62.222223 5.76335384 6.68188.66177692 12.206715 6.57948464 5.500527 11.75823844-8.930343 6.6165539-18.40305 12.4734923-27.258343 18.9730654-14.557269 10.4811731-28.523254 21.7869846-43.341527 31.9588423-6.745384 3.9168808-21.594954 25.53675-27.066919 11.1478116-.298073-15.8212693 9.0534-28.6217 22.797273-35.4193462-.709784-.2047923-1.323554-.2752846-1.903596.2695115" fill="#9dd1f1"/><path d="m43.4418873 16.9764619c4.1942923-.3864923 9.9227039-3.6178961 13.0401654.6116423 1.6337808 2.5404577 3.1511885 5.1340885 1.2746346 8.2801116-1.56815 3.6923384-5.0909423 6.13435-6.6353923 9.6762846 2.6407269.3494231 5.5983654-1.2269308 7.3020308 1.7683846 4.8554615 7.1865692-4.8366231 13.0198077-8.1655616 18.6698269-1.6662923 1.6170693 1.5459693 3.78015 1.870477 5.6822269.9145769 6.9276924-5.4081577 15.1391347-12.2665731 16.6817616-10.49515 3.0411961-21.5606193 1.6006615-32.1548231-.1731923-6.45976923-1.2913462-8.96042308-7.3728269-6.88606538-13.2431346 3.26908076-11.5428116 6.36527307-23.1363654 9.82152308-34.6253962 4.7764615-11.9572577 14.9458885-21.7362423 25.7558231-28.44941922 2.8045-1.41227693 8.3566807-3.23292308 10.1423846.3318 1.66295 2.38975 2.5611192 4.72571923.6462808 7.25007307-1.5453616 2.57783075-3.5534808 4.94661535-4.7889193 7.67788845.3479039-.0464884.6958077-.0926731 1.0440154-.1388577" fill="#c72628" fill-rule="nonzero" transform="translate(227.276923 116.918177)"/><path d="m84.2765619 106.952145c.2452039-4.93355 1.6501885-22.5921773 8.6568808-21.0647427 2.6531846.4269039 4.3465192-3.3401808 6.32-.1616461 5.2939113 5.4889807 24.6230843 28.1449658 6.5679383 27.5579348-2.762569.006684-6.6174652-7.162262-7.9519575-3.918704-4.6403385 11.165435-14.3612885 9.933338-13.5928616-2.412842" fill="#865190"/><g fill="#fdca40"><path d="m77.3330392 73.7305481c-2.4486961-.0668462-2.6850884-.1312616-3.2244154-2.7586193-.9884115-4.8174807-3.1384269-9.0992807-5.3686576-13.4385076-5.1052231-11.2766424-13.5876962-22.1373193-14.7228654-34.6788731 1.1135961-3.9323769 5.6968115-1.9358039 6.5247923 1.18105 2.3639231 7.4214423 28.6833807 48.2738615 16.7911461 49.69495"/><path d="m95.5116077 63.423965c.0504385 1.5426269-.5049923 3.3769462-2.3675692 3.1429846-3.4823808.5150192-3.5428462.5353769-4.5434116-2.8749923-2.3493384-13.9811769-8.2652231-27.0000731-11.5096923-40.6251423 5.7600116-18.3359 17.9919462 35.6952385 18.4206731 40.35715"/></g></g><g fill="#2c2d2c" fill-rule="nonzero" transform="translate(52.830769)"><path d="m88.2294788 23.2385792c-17.0393884-5.7603154-5.3300692-21.26649612 6.97965-21.96139228 22.0950842-2.46753461 46.0989312-1.65261923 66.5778582 7.65236539 9.010557 4.98307689 22.508923 8.33662689 26.495688 18.49146919-5.296038-2.0615961-10.111392-6.2406961-15.731331-8.1324423-13.097896-6.12645-26.347411-11.43950382-40.928381-12.33159612-13.796438-1.35424231-31.016311-3.7209-43.4627611 3.30888462-10.8014269 9.6516731 11.6883539 8.5183269 17.0877001 8.1935154 4.619069-.2050962 6.0119-.2336577 6.507473 4.7861846-1.372169 1.2099154-3.012027 1.6252731-4.826596 1.5146731-7.0519655-.2758923-13.6332732 2.7467692-19.868804 5.6624769-9.0163308 5.1644731-29.8577462 23.6547269-4.7494192 15.0598308 3.0190154-.52535 14.9890346-6.0924193 16.4162-3.2611808-.3545885 1.4927961 1.8713882 3.3951769.0796077 4.3307192-7.0279616 3.1226269-12.6910462 7.8440923-17.2903654 13.9325616-7.1279269 6.9799538-9.9941077 30.037623 5.6001884 21.9054846 8.5377731-7.4083769 15.5669505-16.3909808 23.7139765-24.2836885 1.22997-.8471231 1.863793.7748077 1.93155 1.7860077.869608 2.6832654 5.034731 1.56025 5.094893 5.2778077 2.686911 11.1672577 4.299119 22.5037577 5.819261 33.8733769 4.925043 23.1871081-1.248807 23.4475041 18.751866 11.1566231 1.884757-1.413492 5.688-.299592 4.97305 2.548358-.121539.831627-.037373 1.526827.385277 2.201669 3.07948 4.568631 6.83198 8.657185 10.157577 13.050192 3.376642 3.613035 17.475103-3.228973 17.58388-8.337538.85867-3.510639.513804-6.952608.066846-10.507912-.011546-1.684827 2.365747-1.180746 3.503347-1.594281 2.09198-.21573 1.8249 2.775027 2.124188 4.162389 1.91575 28.182642-39.161515 13.816492-4.675888 29.199008 10.349911 4.571669 10.306461-.814308 15.232415-8.29105 3.658004-6.585258 15.587308-18.429789 19.506315-5.847823-1.127269.158607-1.466057-.689124-1.950692-1.144589-4.105569-3.976131-8.181665 2.079219-10.636438 5.031692-2.3937 3.568977-4.436762 7.371612-6.676108 11.046631-1.209308 1.640162.31205 2.091069.668461 3.472962-7.496188 2.60943-8.466976 17.91568-10.023276 24.962177-3.939366 26.461353-12.306377 21.144653 16.378219 25.961223 1.991407.794254 6.291438-.5056 6.61625 2.143634-.342131 1.426862.365223 4.117723-1.949781 3.733054-30.817596-2.361188-23.840073-12.980611-31.812996 6.484685-7.258277 14.343969-22.046773 25.255084-38.282489 26.447377-18.747003 2.503996-37.5565996 2.386407-56.3865535 2.839138-23.6124923-.025523-48.4810846-9.529527-71.34034227-1.093238-1.72341538 5.25198 40.61146927 6.477696 34.30818077 13.235234-9.1977269 2.673543-19.43795.309923-28.2242692 5.596543-4.64033849 2.273073-4.15813465 3.112903 1.0148461 3.356588 6.7162154.469746 13.4385077.694592 20.0204231 2.243296 10.1332692 5.176627-5.1216308 6.246469-9.1235885 6.589512-2.8048038.136427-13.5627807 3.640684-8.1965538 6.466454 4.2395654 2.131784 9.0476269.294427 13.2179154 2.379419 14.6645269 1.868046 29.3618692 4.779804 44.2403038 5.588642 19.7496962 1.092023 39.3781581.428727 59.1445651-.244596 18.855781-.995096 49.560954.604958 63.806173-12.92835 3.6103-4.535512 6.575535-9.442323 7.526573-15.254596.631393-2.552916.961977-5.383546 3.333497-6.953823.787873-.676058 2.012677.332407 2.663515-.757793.011546-.019446.406546.11455.539631.255535 6.952 5.963285-1.253973 14.821008-4.419443 20.779431-16.523153 24.599384-72.092057 20.607454-99.172042 21.634454-16.9637306-.620454-34.0280345-.190208-50.9145883-1.926081-11.8816.054388-23.2256962-4.030215-34.9341039-5.351035-6.3245576-.050134-16.16461534-5.27568-10.12385-12.257457 1.1129885-2.339312 6.0960654-2.4648 6.1978539-4.727543-25.85548462-1.59975-12.81531924-11.298519 2.6446769-16.944892-5.3674423-2.672631-10.61577691-2.584212-15.84436152-5.334627-12.01103846-9.122373 10.53981542-13.620208 17.16366152-13.737796 22.6596308-1.2324 44.9592039 4.665254 67.6115423 3.707531 30.9376151.229707 69.9459921 3.958507 82.1104731-32.224708 5.713523-16.508873 5.334627-34.585288 12.084569-50.768438.367958-.779974.502562-1.966493-.689427-1.975304-6.708619.03008-12.678284-2.655616-18.645215-5.218862-9.212312-4.899823-15.028535-14.711927-20.919808-23.031842-1.874731-4.975785-13.908861 8.857115-16.691484 5.144419-9.454173-8.405296-10.8072-41.3185192-13.722604-54.7564192-.013066-.673323-.329066-1.9029884-1.181354-1.4390153-10.434989 6.6229346-17.6139616 23.595173-31.9521578 20.5424307-5.5895538-1.1412461-10.7117923-11.9238346-6.4722269-16.0695115-3.0263077-6.1607846 6.1346539-15.4211039 9.4556923-20.4351731-33.7247961 4.5555654-8.0525308-21.5034961 6.4834692-28.6110654" transform="translate(53.173077 .220592)"/><path d="m61.5798315 139.693968c-5.5214923-1.834927-8.3448307-7.403211-10.7421769-12.378388-2.3648346 5.92895-5.18635 12.839323-12.6782846 12.572546-8.8522538.210869-11.4443654-10.716958-13.7940077-17.569296-2.4043346 3.629746-1.5982308 8.788446-5.1201115 11.340753-7.2904846 3.048489-12.0538808-5.340703-15.15311157-10.63735-3.58173846-10.567465-4.74516538-22.11058-3.7525-33.2410726-.87355769-28.1182269 9.49428077-46.4021692 35.59861537-57.7517346 23.2381539-10.4829962 48.2349692-17.1320616 73.8583154-13.5858731 5.471965.7890885 12.3319.2740692 15.915158 5.2726423-32.3365234-2.2250654-54.7640157-2.4514308-85.1759772 10.9542615-30.70091926 13.6937385-34.79980388 30.4666539-35.40719234 61.8363385-1.12210384 6.487419 1.44083846 12.605665 2.01358846 18.986435.49405385 5.86818 3.45746538 11.768265 8.29499998 15.152807 4.4033385 1.481554 5.2857077-21.817369 6.3272923-25.642792.5809539-2.950346-.444223-6.4561231 1.2752423-9.0585654 1.6198039-1.7790192 4.38055-2.1214538 5.0745347.6781846 1.4052884 7.5508808 1.3910076 15.3806928 2.3456923 23.0193848.471873 5.335842 2.2235461 10.830292 6.2820192 14.545419 9.6741577 5.523619 10.6637846-20.610492 10.7418731-26.276311-.871127-12.5297043 7.1425115-11.5753235 6.8225615.227276.8644423 7.884808-.4575923 16.607624 4.3939192 23.41955 10.5164193 12.647293 8.2302808-4.535511 8.2776808-11.65098-.0027346-5.850558.0808231-11.70142.0504385-17.551977-.2363923-7.2904848-2.4022077-16.5422964 4.4668423-21.553631 11.9353807-8.8027269 26.7697577-13.5454615 41.6053499-13.98695 7.68275 2.4012962-3.146327 5.9708808-6.337015 5.4002577-6.709227-.1835231-13.438508 2.0555192-19.0815388 5.5907692-1.4213923 1.5253077-3.5328192.3059731-5.1833115 1.5970154-3.7807577 2.8759039-10.2019385 4.7050577-10.17915 10.3189192.6295692 11.7795075.7337885 23.5860575.6484077 35.3974695.4032038 7.022796-1.8230769 18.976711-11.4467962 14.498627.3627923.274069.6742346.340915 1.0637654.068061-.3469923-.327242-.6426346-.219073-1.0051231.008204"/><path d="m210.472894 83.7086735c-12.268396 2.64255-23.147608-26.7314731-7.031608-6.0635539 3.434677 3.7883539 12.632708 3.3155692 12.729939-2.7665192-.032208-6.0356-5.1824-7.0115539-4.904077-11.0223231 4.92565-6.3473461 17.762542 19.5622231-.794254 19.8523962"/></g></g></svg>